# xmcd
#
# Track frame offsets:
#  150
#  22747
#  46835
#  67662
#  81547
#  106492
#  124910
#  141965
#  179142
#  205312
#  228362
#
# Disc length: 3448 seconds
#
# Revision: 1
# Processed by: cddbd v1.5.1PL2 Copyright (c) Steve Scherf et al.
# Submitted via: Collectorz.com_Music_Collector 6.11
#
DISCID=970d760b
DTITLE=Kevin Borich - Live At The Big Kahuna [CD1)
DYEAR=2002
DGENRE=Blues -  Blues Rock
TTITLE0=Canefield
TTITLE1=I Can't Wait
TTITLE2=High Temperature
TTITLE3=Dust My Broom
TTITLE4=Recession Blues
TTITLE5=Boogie
TTITLE6=Back Door Man
TTITLE7=Rollin' And Tumblin'
TTITLE8=Little Red Rooster
TTITLE9=Angels Hand
TTITLE10=Beatin' My Heart
EXTD=
EXTT0=
EXTT1=
EXTT2=
EXTT3=
EXTT4=
EXTT5=
EXTT6=
EXTT7=
EXTT8=
EXTT9=
EXTT10=
PLAYORDER=
